<svg width="171" height="26" viewBox="0 0 171 26" fill="none" xmlns="http://www.w3.org/2000/svg">
<g clip-path="url(#clip0_1176_1760)">
<mask id="mask0_1176_1760" style="mask-type:luminance" maskUnits="userSpaceOnUse" x="0" y="0" width="171" height="26">
<path d="M170.453 0.563477H0V25.5078H170.453V0.563477Z" fill="white"/>
</mask>
<g mask="url(#mask0_1176_1760)">
<path d="M80.2627 18.1582C79.8812 19.5732 78.3734 20.739 76.91 20.739H67.1183C65.6548 20.739 64.7679 19.5821 65.1492 18.1582L68.7413 4.7114C69.1228 3.29642 70.6305 2.13062 72.0939 2.13062H81.8857C83.3492 2.13062 84.2361 3.28752 83.8547 4.7114L80.2627 18.1582Z" fill="#73737B"/>
<path d="M0.00012207 2.47705H10.4268V4.2481H2.17028V10.559H8.6059V12.33H2.17028V20.3122H0.00012207V2.47705Z" fill="#232324"/>
<path d="M12.7419 7.26651H14.8123V20.3123H12.7419V7.26651ZM13.7397 4.54758C13.3572 4.54758 13.0329 4.41455 12.7668 4.14847C12.5008 3.8824 12.3677 3.55813 12.3677 3.17565C12.3677 2.79317 12.5008 2.46889 12.7668 2.20282C13.0329 1.93675 13.3572 1.80371 13.7397 1.80371C14.1222 1.80371 14.4464 1.93675 14.7125 2.20282C14.9786 2.46889 15.1116 2.79317 15.1116 3.17565C15.1116 3.55813 14.9786 3.8824 14.7125 4.14847C14.4464 4.41455 14.1222 4.54758 13.7397 4.54758Z" fill="#232324"/>
<path d="M17.6121 7.26649H19.6825V9.33687C19.9818 8.72157 20.4807 8.18943 21.1792 7.74043C21.8942 7.27481 22.7922 7.04199 23.8731 7.04199C24.5383 7.04199 25.1536 7.14177 25.719 7.34132C26.2844 7.52425 26.7667 7.83189 27.1658 8.26426C27.5815 8.68 27.8975 9.22047 28.1137 9.88565C28.3465 10.5508 28.4629 11.3573 28.4629 12.3052V20.3123H26.3925V12.1555C26.3925 11.0081 26.1431 10.1684 25.6442 9.63621C25.1453 9.10406 24.372 8.83798 23.3244 8.83798C22.8421 8.83798 22.3765 8.91281 21.9275 9.06248C21.4951 9.21215 21.1126 9.43665 20.78 9.73599C20.4475 10.0353 20.1814 10.4095 19.9818 10.8585C19.7823 11.3074 19.6825 11.8229 19.6825 12.405V20.3123H17.6121V7.26649Z" fill="#232324"/>
<path d="M37.0036 20.5368C36.0723 20.5368 35.2242 20.3788 34.4593 20.0629C33.6943 19.7469 33.0291 19.3062 32.4637 18.7408C31.8983 18.1588 31.4576 17.4604 31.1417 16.6455C30.8424 15.8307 30.6927 14.9244 30.6927 13.9266V13.727C30.6927 12.7459 30.8424 11.8479 31.1417 11.033C31.441 10.2016 31.8568 9.49485 32.3889 8.91281C32.9377 8.31415 33.5862 7.85684 34.3346 7.54088C35.0829 7.20829 35.906 7.04199 36.804 7.04199C37.5524 7.04199 38.2758 7.16671 38.9742 7.41616C39.6893 7.64897 40.3212 8.02313 40.87 8.53865C41.4187 9.05416 41.8511 9.72767 42.1671 10.5591C42.4997 11.374 42.6659 12.3634 42.6659 13.5275V14.201H32.8379C32.8878 15.6976 33.262 16.8451 33.9604 17.6433C34.6588 18.4249 35.6815 18.8157 37.0285 18.8157C39.074 18.8157 40.2297 18.059 40.4958 16.5457H42.5662C42.3334 17.8595 41.7181 18.8572 40.7203 19.539C39.7225 20.2042 38.4836 20.5368 37.0036 20.5368ZM40.5457 12.5297C40.4459 11.1827 40.0634 10.2182 39.3982 9.63621C38.7497 9.05418 37.885 8.76315 36.804 8.76315C35.7398 8.76315 34.8667 9.10406 34.1849 9.78587C33.5197 10.4511 33.0957 11.3656 32.9127 12.5297H40.5457Z" fill="#232324"/>
<path d="M45.0472 7.26649H47.1176V9.61126C47.3171 9.24541 47.5416 8.91281 47.7911 8.61348C48.0571 8.29752 48.3565 8.03145 48.689 7.81527C49.0216 7.58245 49.4124 7.39953 49.8614 7.26649C50.3104 7.13345 50.8259 7.05862 51.408 7.04199V8.98765C50.7594 9.02091 50.1691 9.10405 49.6369 9.23709C49.1048 9.37013 48.6475 9.59464 48.265 9.9106C47.8991 10.2266 47.6164 10.6506 47.4169 11.1827C47.2173 11.6982 47.1176 12.3551 47.1176 13.1533V20.3123H45.0472V7.26649Z" fill="#232324"/>
<path d="M57.6119 18.9654L52.4983 7.2666H54.7183L58.7094 16.6207L62.3263 7.2666H64.4466L57.2377 24.8523H55.1424L57.6119 18.9654Z" fill="#232324"/>
<path d="M86.8022 2.47705H89.8205L95.3332 16.371L100.671 2.47705H103.665V20.3122H101.494V5.29575L95.5826 20.3122H94.9091L88.7978 5.29575V20.3122H86.8022V2.47705Z" fill="#232324"/>
<path d="M110.524 20.5368C109.926 20.5368 109.36 20.462 108.828 20.3123C108.296 20.1627 107.83 19.9298 107.431 19.6139C107.049 19.2979 106.741 18.8988 106.508 18.4166C106.292 17.9343 106.184 17.3606 106.184 16.6954C106.184 15.9471 106.367 15.3152 106.733 14.7996C107.099 14.2841 107.581 13.8684 108.18 13.5524C108.795 13.2365 109.493 13.012 110.275 12.8789C111.073 12.7293 111.888 12.6544 112.719 12.6544H114.59V11.7065C114.59 10.6589 114.374 9.9106 113.942 9.4616C113.509 8.99597 112.794 8.76315 111.796 8.76315C110 8.76315 109.003 9.54475 108.803 11.1079H106.733C106.799 10.3596 106.982 9.72766 107.282 9.21215C107.597 8.69663 107.988 8.28089 108.454 7.96493C108.936 7.63234 109.468 7.39953 110.05 7.26649C110.649 7.11683 111.264 7.04199 111.896 7.04199C112.511 7.04199 113.11 7.11683 113.692 7.26649C114.274 7.39953 114.781 7.64897 115.214 8.01482C115.646 8.36404 115.995 8.83799 116.261 9.43665C116.528 10.0353 116.661 10.792 116.661 11.7065V20.3123H114.59V18.666C114.108 19.2813 113.551 19.7469 112.919 20.0629C112.287 20.3788 111.489 20.5368 110.524 20.5368ZM110.724 18.8905C111.273 18.8905 111.78 18.824 112.245 18.6909C112.728 18.5413 113.135 18.3334 113.468 18.0673C113.817 17.8013 114.091 17.477 114.291 17.0945C114.49 16.6954 114.59 16.2464 114.59 15.7475V14.1261H112.794C112.146 14.1261 111.539 14.176 110.973 14.2758C110.424 14.359 109.942 14.5003 109.526 14.6999C109.127 14.8994 108.811 15.1655 108.579 15.4981C108.362 15.814 108.254 16.2131 108.254 16.6954C108.254 17.3772 108.437 17.9177 108.803 18.3168C109.169 18.6993 109.809 18.8905 110.724 18.8905Z" fill="#232324"/>
<path d="M119.311 7.26649H121.381V9.61125C121.581 9.2454 121.805 8.91281 122.055 8.61348C122.321 8.29752 122.62 8.03145 122.953 7.81527C123.285 7.58245 123.676 7.39953 124.125 7.26649C124.574 7.13345 125.089 7.05862 125.672 7.04199V8.98765C125.023 9.02091 124.433 9.10405 123.9 9.23709C123.368 9.37013 122.911 9.59462 122.529 9.91059C122.163 10.2265 121.88 10.6506 121.68 11.1827C121.481 11.6982 121.381 12.3551 121.381 13.1533V20.3123H119.311V7.26649Z" fill="#232324"/>
<path d="M127.983 1.03027H130.054V13.2779L135.466 7.26635H137.886L132.299 13.3278L138.36 20.3122H135.841L130.054 13.5523V20.3122H127.983V1.03027Z" fill="#232324"/>
<path d="M144.911 20.5368C143.98 20.5368 143.132 20.3789 142.367 20.0629C141.602 19.7469 140.937 19.3062 140.371 18.7408C139.806 18.1588 139.365 17.4604 139.049 16.6455C138.75 15.8307 138.6 14.9244 138.6 13.9266V13.727C138.6 12.7459 138.75 11.8479 139.049 11.0331C139.348 10.2016 139.764 9.49485 140.296 8.91281C140.845 8.31415 141.494 7.85684 142.242 7.54088C142.99 7.20829 143.813 7.04199 144.711 7.04199C145.46 7.04199 146.183 7.16671 146.882 7.41616C147.597 7.64897 148.229 8.02313 148.777 8.53865C149.326 9.05416 149.759 9.72766 150.074 10.5591C150.407 11.374 150.573 12.3634 150.573 13.5275V14.201H140.745C140.795 15.6976 141.169 16.8451 141.868 17.6433C142.566 18.4249 143.589 18.8157 144.936 18.8157C146.981 18.8157 148.137 18.059 148.403 16.5457H150.474C150.241 17.8595 149.625 18.8573 148.628 19.5391C147.63 20.2042 146.391 20.5368 144.911 20.5368ZM148.453 12.5297C148.353 11.1827 147.971 10.2182 147.306 9.6362C146.657 9.05417 145.792 8.76315 144.711 8.76315C143.647 8.76315 142.774 9.10405 142.092 9.78586C141.427 10.451 141.003 11.3656 140.82 12.5297H148.453Z" fill="#232324"/>
<path d="M157.091 20.4869C155.893 20.4869 155.004 20.171 154.422 19.539C153.856 18.9071 153.574 18.0756 153.574 17.0446V9.01257H151.703V7.26647H153.574V4.2981H155.644V7.26647H158.687V9.01257H155.644V16.8451C155.644 18.1089 156.184 18.7408 157.265 18.7408C157.598 18.7408 157.889 18.7159 158.138 18.666C158.388 18.6161 158.629 18.5496 158.862 18.4664V20.2125C158.646 20.2957 158.405 20.3622 158.138 20.4121C157.872 20.462 157.523 20.4869 157.091 20.4869Z" fill="#232324"/>
<path d="M165.327 20.5368C163.764 20.5368 162.533 20.171 161.635 19.4393C160.754 18.691 160.28 17.6433 160.213 16.2963H162.234C162.317 17.0779 162.583 17.6932 163.032 18.1422C163.497 18.5912 164.254 18.8157 165.302 18.8157C166.3 18.8157 167.023 18.6494 167.472 18.3168C167.921 17.9676 168.145 17.4437 168.145 16.7453C168.145 16.0635 167.888 15.5729 167.372 15.2736C166.873 14.9743 166.117 14.7331 165.102 14.5502C164.254 14.4005 163.539 14.2259 162.957 14.0264C162.375 13.8102 161.909 13.5524 161.56 13.2531C161.211 12.9538 160.953 12.5962 160.787 12.1805C160.637 11.7648 160.562 11.2742 160.562 10.7088C160.562 10.1101 160.695 9.58631 160.961 9.13731C161.228 8.67169 161.568 8.28921 161.984 7.98987C162.417 7.67391 162.89 7.4411 163.406 7.29143C163.938 7.12514 164.462 7.04199 164.977 7.04199C165.56 7.04199 166.117 7.10851 166.649 7.24155C167.181 7.35795 167.655 7.56582 168.071 7.86515C168.503 8.16448 168.86 8.55528 169.143 9.03754C169.426 9.51979 169.609 10.1101 169.692 10.8086H167.696C167.547 10.0935 167.256 9.57799 166.823 9.26203C166.408 8.92944 165.784 8.76315 164.953 8.76315C164.204 8.76315 163.606 8.93776 163.157 9.28698C162.708 9.61957 162.483 10.0686 162.483 10.634C162.483 10.9333 162.525 11.191 162.608 11.4072C162.708 11.6068 162.874 11.7897 163.107 11.956C163.339 12.1057 163.647 12.247 164.03 12.38C164.429 12.4965 164.928 12.6045 165.526 12.7043C166.191 12.8374 166.807 12.987 167.372 13.1533C167.938 13.303 168.42 13.5192 168.819 13.8019C169.235 14.0679 169.551 14.4255 169.767 14.8745C170 15.3068 170.116 15.8722 170.116 16.5707C170.116 17.768 169.717 18.7325 168.919 19.4642C168.12 20.1793 166.923 20.5368 165.327 20.5368Z" fill="#232324"/>
</g>
</g>
<defs>
<clipPath id="clip0_1176_1760">
<rect width="170.453" height="24.9443" fill="white" transform="translate(0 0.563477)"/>
</clipPath>
</defs>
</svg>
